# xmcd
#
# Track frame offsets:
#	150
#	22053
#	36654
#	60268
#	90637
#
# Disc length: 1506 seconds
#
# Revision: 1
# Processed by: cddbd v1.5.2PL0 Copyright (c) Steve Scherf et al.
# Submitted via: audiograbber 1.83.01
#
DISCID=3b05e005
DTITLE=Grateful Dead - 81-12-31 Oakland Auditorium Arena, Oakland CA
DYEAR=1900
DGENRE=
TTITLE0=Me and Bobby McGee
TTITLE1=Bye Bye Love
TTITLE2=Lucifer's Eyes
TTITLE3=Children Of The 80s
TTITLE4=Banks Of The Ohio
EXTD=
EXTT0=
EXTT1=
EXTT2=
EXTT3=
EXTT4=
PLAYORDER=
